{
    "asset" : {
        "extensions" : {
            "ASOBO_normal_map_convention" : {
                "tangent_space_convention" : "DirectX"
            }
        },
        "generator" : "Extended Khronos glTF Blender I/O v1.0.0",
        "version" : "2.0"
    },
    "extensionsUsed" : [
        "ASOBO_normal_map_convention",
        "ASOBO_macro_light"
    ],
    "scene" : 0,
    "scenes" : [
        {
            "name" : "Scene",
            "nodes" : [
                12,
                13,
                14
            ]
        }
    ],
    "nodes" : [
        {
            "name" : "attachpt_landing_1",
            "rotation" : [
                0.7071067690849304,
                0,
                0,
                0.7071067690849304
            ],
            "translation" : [
                -2.319000005722046,
                -0.0820000022649765,
                1.7059999704360962
            ]
        },
        {
            "name" : "attachpt_landing_2",
            "rotation" : [
                0.7131628394126892,
                -0.0010362215107306838,
                0.0010363514302298427,
                0.7009968757629395
            ],
            "translation" : [
                -8.667767524719238,
                0.04527311027050018,
                -4.798532009124756
            ]
        },
        {
            "name" : "attachpt_landing_3",
            "rotation" : [
                0.7071065306663513,
                0,
                0,
                0.7071070075035095
            ],
            "translation" : [
                8.67729377746582,
                0.039637476205825806,
                -4.803091526031494
            ]
        },
        {
            "name" : "attachpt_landing_4",
            "rotation" : [
                0.7071067690849304,
                0,
                0,
                0.7071067690849304
            ],
            "translation" : [
                2.319338083267212,
                -0.0820309966802597,
                1.706063985824585
            ]
        },
        {
            "name" : "attachpt_landing_5",
            "rotation" : [
                0.13889548182487488,
                0.05055386945605278,
                0.338263601064682,
                -0.9293708205223083
            ],
            "translation" : [
                0.10864149779081345,
                -0.4911835789680481,
                9.305225372314453
            ]
        },
        {
            "mesh" : 0,
            "name" : "node1"
        },
        {
            "mesh" : 1,
            "name" : "node19"
        },
        {
            "mesh" : 2,
            "name" : "node2"
        },
        {
            "mesh" : 3,
            "name" : "node20"
        },
        {
            "name" : "node23"
        },
        {
            "mesh" : 4,
            "name" : "node7"
        },
        {
            "mesh" : 5,
            "name" : "node8"
        },
        {
            "children" : [
                0,
                1,
                2,
                3,
                4,
                5,
                6,
                7,
                8,
                9,
                10,
                11
            ],
            "name" : "node0"
        },
        {
            "extensions" : {
                "ASOBO_macro_light" : {
                    "color" : [
                        1,
                        1,
                        1
                    ],
                    "intensity" : 1000,
                    "cone_angle" : 360,
                    "has_simmetry" : false,
                    "flash_frequency" : 0,
                    "flash_duration" : 0,
                    "flash_phase" : 0,
                    "rotation_speed" : 0,
                    "day_night_cycle" : false
                }
            },
            "name" : "Light",
            "rotation" : [
                0.5232754945755005,
                0.34203392267227173,
                -0.7269423604011536,
                0.28416627645492554
            ],
            "translation" : [
                -3.074657917022705,
                18.22064971923828,
                14.925649642944336
            ]
        },
        {
            "name" : "Camera",
            "rotation" : [
                0.483536034822464,
                0.33687159419059753,
                -0.20870360732078552,
                0.7804827094078064
            ],
            "translation" : [
                12.982874870300293,
                8.84892749786377,
                14.844619750976562
            ]
        }
    ],
    "materials" : [
        {
            "doubleSided" : true,
            "emissiveFactor" : [
                0,
                0,
                0
            ],
            "name" : "Material",
            "pbrMetallicRoughness" : {
                "baseColorFactor" : [
                    0.800000011920929,
                    0.800000011920929,
                    0.800000011920929,
                    1
                ],
                "metallicFactor" : 0,
                "roughnessFactor" : 0.4000000059604645
            }
        },
        {
            "emissiveFactor" : [
                0,
                0,
                0
            ],
            "name" : "material01",
            "pbrMetallicRoughness" : {
                "baseColorFactor" : [
                    0.5879999995231628,
                    0.5879999995231628,
                    0.5879999995231628,
                    1
                ],
                "metallicFactor" : 1,
                "roughnessFactor" : 1
            }
        }
    ],
    "meshes" : [
        {
            "name" : "part000",
            "primitives" : [
                {
                    "attributes" : {
                        "POSITION" : 0,
                        "NORMAL" : 1,
                        "TEXCOORD_0" : 2
                    },
                    "indices" : 3,
                    "material" : 0
                }
            ]
        },
        {
            "name" : "part004",
            "primitives" : [
                {
                    "attributes" : {
                        "POSITION" : 4,
                        "NORMAL" : 5,
                        "TEXCOORD_0" : 6
                    },
                    "indices" : 7,
                    "material" : 0
                }
            ]
        },
        {
            "name" : "part001",
            "primitives" : [
                {
                    "attributes" : {
                        "POSITION" : 8,
                        "NORMAL" : 9,
                        "TEXCOORD_0" : 10
                    },
                    "indices" : 11,
                    "material" : 1
                }
            ]
        },
        {
            "name" : "part005",
            "primitives" : [
                {
                    "attributes" : {
                        "POSITION" : 12,
                        "NORMAL" : 13,
                        "TEXCOORD_0" : 14
                    },
                    "indices" : 15,
                    "material" : 0
                }
            ]
        },
        {
            "name" : "part002",
            "primitives" : [
                {
                    "attributes" : {
                        "POSITION" : 16,
                        "NORMAL" : 17,
                        "TEXCOORD_0" : 18
                    },
                    "indices" : 7,
                    "material" : 0
                }
            ]
        },
        {
            "name" : "part003",
            "primitives" : [
                {
                    "attributes" : {
                        "POSITION" : 19,
                        "NORMAL" : 20,
                        "TEXCOORD_0" : 21
                    },
                    "indices" : 22,
                    "material" : 0
                }
            ]
        }
    ],
    "accessors" : [
        {
            "bufferView" : 0,
            "componentType" : 5126,
            "count" : 6487,
            "max" : [
                14.169719696044922,
                3.281440019607544,
                12.509099960327148
            ],
            "min" : [
                -14.169719696044922,
                -1.7387100458145142,
                -17.72113037109375
            ],
            "type" : "VEC3"
        },
        {
            "bufferView" : 1,
            "componentType" : 5126,
            "count" : 6487,
            "type" : "VEC3"
        },
        {
            "bufferView" : 2,
            "componentType" : 5126,
            "count" : 6487,
            "type" : "VEC2"
        },
        {
            "bufferView" : 3,
            "componentType" : 5123,
            "count" : 14334,
            "type" : "SCALAR"
        },
        {
            "bufferView" : 4,
            "componentType" : 5126,
            "count" : 58,
            "max" : [
                0.3483400046825409,
                8.84751033782959,
                -9.044130325317383
            ],
            "min" : [
                -0.3483400046825409,
                2.5724899768829346,
                -17.23702049255371
            ],
            "type" : "VEC3"
        },
        {
            "bufferView" : 5,
            "componentType" : 5126,
            "count" : 58,
            "type" : "VEC3"
        },
        {
            "bufferView" : 6,
            "componentType" : 5126,
            "count" : 58,
            "type" : "VEC2"
        },
        {
            "bufferView" : 7,
            "componentType" : 5123,
            "count" : 246,
            "type" : "SCALAR"
        },
        {
            "bufferView" : 8,
            "componentType" : 5126,
            "count" : 546,
            "max" : [
                1.43661367893219,
                0.21449534595012665,
                10.053170204162598
            ],
            "min" : [
                -1.4363347291946411,
                -1.1778037548065186,
                -3.1158785820007324
            ],
            "type" : "VEC3"
        },
        {
            "bufferView" : 9,
            "componentType" : 5126,
            "count" : 546,
            "type" : "VEC3"
        },
        {
            "bufferView" : 10,
            "componentType" : 5126,
            "count" : 546,
            "type" : "VEC2"
        },
        {
            "bufferView" : 11,
            "componentType" : 5123,
            "count" : 834,
            "type" : "SCALAR"
        },
        {
            "bufferView" : 12,
            "componentType" : 5126,
            "count" : 56,
            "max" : [
                1.865190029144287,
                2.1447699069976807,
                9.197239875793457
            ],
            "min" : [
                -1.8639800548553467,
                1.220080018043518,
                -12.019969940185547
            ],
            "type" : "VEC3"
        },
        {
            "bufferView" : 13,
            "componentType" : 5126,
            "count" : 56,
            "type" : "VEC3"
        },
        {
            "bufferView" : 14,
            "componentType" : 5126,
            "count" : 56,
            "type" : "VEC2"
        },
        {
            "bufferView" : 15,
            "componentType" : 5123,
            "count" : 171,
            "type" : "SCALAR"
        },
        {
            "bufferView" : 16,
            "componentType" : 5126,
            "count" : 58,
            "max" : [
                0.3483389914035797,
                8.847511291503906,
                -9.044130325317383
            ],
            "min" : [
                -0.3483410179615021,
                2.572490930557251,
                -17.23702049255371
            ],
            "type" : "VEC3"
        },
        {
            "bufferView" : 17,
            "componentType" : 5126,
            "count" : 58,
            "type" : "VEC3"
        },
        {
            "bufferView" : 18,
            "componentType" : 5126,
            "count" : 58,
            "type" : "VEC2"
        },
        {
            "bufferView" : 19,
            "componentType" : 5126,
            "count" : 106,
            "max" : [
                8.7255277633667,
                1.2172000408172607,
                7.832509994506836
            ],
            "min" : [
                -8.725375175476074,
                -1.1580899953842163,
                -4.873002052307129
            ],
            "type" : "VEC3"
        },
        {
            "bufferView" : 20,
            "componentType" : 5126,
            "count" : 106,
            "type" : "VEC3"
        },
        {
            "bufferView" : 21,
            "componentType" : 5126,
            "count" : 106,
            "type" : "VEC2"
        },
        {
            "bufferView" : 22,
            "componentType" : 5123,
            "count" : 288,
            "type" : "SCALAR"
        }
    ],
    "bufferViews" : [
        {
            "buffer" : 0,
            "byteLength" : 77844,
            "byteOffset" : 0
        },
        {
            "buffer" : 0,
            "byteLength" : 77844,
            "byteOffset" : 77844
        },
        {
            "buffer" : 0,
            "byteLength" : 51896,
            "byteOffset" : 155688
        },
        {
            "buffer" : 0,
            "byteLength" : 28668,
            "byteOffset" : 207584
        },
        {
            "buffer" : 0,
            "byteLength" : 696,
            "byteOffset" : 236252
        },
        {
            "buffer" : 0,
            "byteLength" : 696,
            "byteOffset" : 236948
        },
        {
            "buffer" : 0,
            "byteLength" : 464,
            "byteOffset" : 237644
        },
        {
            "buffer" : 0,
            "byteLength" : 492,
            "byteOffset" : 238108
        },
        {
            "buffer" : 0,
            "byteLength" : 6552,
            "byteOffset" : 238600
        },
        {
            "buffer" : 0,
            "byteLength" : 6552,
            "byteOffset" : 245152
        },
        {
            "buffer" : 0,
            "byteLength" : 4368,
            "byteOffset" : 251704
        },
        {
            "buffer" : 0,
            "byteLength" : 1668,
            "byteOffset" : 256072
        },
        {
            "buffer" : 0,
            "byteLength" : 672,
            "byteOffset" : 257740
        },
        {
            "buffer" : 0,
            "byteLength" : 672,
            "byteOffset" : 258412
        },
        {
            "buffer" : 0,
            "byteLength" : 448,
            "byteOffset" : 259084
        },
        {
            "buffer" : 0,
            "byteLength" : 342,
            "byteOffset" : 259532
        },
        {
            "buffer" : 0,
            "byteLength" : 696,
            "byteOffset" : 259876
        },
        {
            "buffer" : 0,
            "byteLength" : 696,
            "byteOffset" : 260572
        },
        {
            "buffer" : 0,
            "byteLength" : 464,
            "byteOffset" : 261268
        },
        {
            "buffer" : 0,
            "byteLength" : 1272,
            "byteOffset" : 261732
        },
        {
            "buffer" : 0,
            "byteLength" : 1272,
            "byteOffset" : 263004
        },
        {
            "buffer" : 0,
            "byteLength" : 848,
            "byteOffset" : 264276
        },
        {
            "buffer" : 0,
            "byteLength" : 576,
            "byteOffset" : 265124
        }
    ],
    "buffers" : [
        {
            "byteLength" : 265700,
            "uri" : "IAB737200ADV.bin"
        }
    ]
}
