{
    "asset" : {
        "extensions" : {
            "ASOBO_normal_map_convention" : {
                "tangent_space_convention" : "DirectX"
            }
        },
        "generator" : "Extended Khronos glTF Blender I/O v1.0.0",
        "version" : "2.0"
    },
    "extensionsUsed" : [
        "ASOBO_normal_map_convention",
        "ASOBO_material_alphamode_dither",
        "KHR_materials_clearcoat"
    ],
    "scene" : 0,
    "scenes" : [
        {
            "name" : "Scene",
            "nodes" : [
                0,
                1
            ]
        }
    ],
    "nodes" : [
        {
            "mesh" : 0,
            "name" : "InteriorShell"
        },
        {
            "mesh" : 1,
            "name" : "Screen",
            "translation" : [
                0.002830982208251953,
                2.0820605754852295,
                13.748923301696777
            ]
        }
    ],
    "materials" : [
        {
            "alphaMode" : "BLEND",
            "emissiveFactor" : [
                0,
                0,
                0
            ],
            "extensions" : {
                "ASOBO_material_alphamode_dither" : {
                    "enabled" : true
                }
            },
            "name" : "material01.001",
            "pbrMetallicRoughness" : {
                "baseColorFactor" : [
                    0.09541875123977661,
                    0.12337879091501236,
                    0.25294259190559387,
                    1
                ],
                "metallicFactor" : 0,
                "roughnessFactor" : 0.5
            }
        },
        {
            "doubleSided" : true,
            "emissiveFactor" : [
                0,
                0,
                0
            ],
            "name" : "screen_box",
            "pbrMetallicRoughness" : {
                "baseColorFactor" : [
                    0.10247385501861572,
                    0.10247385501861572,
                    0.10247385501861572,
                    1
                ],
                "metallicFactor" : 0.25,
                "roughnessFactor" : 0.75
            }
        },
        {
            "doubleSided" : true,
            "emissiveFactor" : [
                0,
                0,
                0
            ],
            "extensions" : {
                "KHR_materials_clearcoat" : {
                    "clearcoatFactor" : 0.44999998807907104,
                    "clearcoatRoughnessFactor" : 0.029999999329447746
                }
            },
            "name" : "MAIN_SCREEN",
            "pbrMetallicRoughness" : {
                "baseColorFactor" : [
                    0,
                    0,
                    0,
                    1
                ],
                "metallicFactor" : 0.15000000596046448,
                "roughnessFactor" : 0.15000000596046448
            }
        }
    ],
    "meshes" : [
        {
            "name" : "part007.001",
            "primitives" : [
                {
                    "attributes" : {
                        "POSITION" : 0,
                        "NORMAL" : 1,
                        "TEXCOORD_0" : 2
                    },
                    "indices" : 3,
                    "material" : 0
                }
            ]
        },
        {
            "name" : "Cube",
            "primitives" : [
                {
                    "attributes" : {
                        "POSITION" : 4,
                        "NORMAL" : 5,
                        "TEXCOORD_0" : 6
                    },
                    "indices" : 7,
                    "material" : 1
                },
                {
                    "attributes" : {
                        "POSITION" : 8,
                        "NORMAL" : 9,
                        "TEXCOORD_0" : 10
                    },
                    "indices" : 11,
                    "material" : 2
                }
            ]
        }
    ],
    "accessors" : [
        {
            "bufferView" : 0,
            "componentType" : 5126,
            "count" : 1997,
            "max" : [
                2.0149900913238525,
                3.25219988822937,
                14.244400024414062
            ],
            "min" : [
                -2.015000104904175,
                -0.9103299975395203,
                3.383539915084839
            ],
            "type" : "VEC3"
        },
        {
            "bufferView" : 1,
            "componentType" : 5126,
            "count" : 1997,
            "type" : "VEC3"
        },
        {
            "bufferView" : 2,
            "componentType" : 5126,
            "count" : 1997,
            "type" : "VEC2"
        },
        {
            "bufferView" : 3,
            "componentType" : 5123,
            "count" : 3522,
            "type" : "SCALAR"
        },
        {
            "bufferView" : 4,
            "componentType" : 5126,
            "count" : 52,
            "max" : [
                0.6579097509384155,
                -0.4941015839576721,
                0.03884437680244446
            ],
            "min" : [
                -0.6579097509384155,
                -0.9984675049781799,
                -0.03884437680244446
            ],
            "type" : "VEC3"
        },
        {
            "bufferView" : 5,
            "componentType" : 5126,
            "count" : 52,
            "type" : "VEC3"
        },
        {
            "bufferView" : 6,
            "componentType" : 5126,
            "count" : 52,
            "type" : "VEC2"
        },
        {
            "bufferView" : 7,
            "componentType" : 5123,
            "count" : 78,
            "type" : "SCALAR"
        },
        {
            "bufferView" : 8,
            "componentType" : 5126,
            "count" : 4,
            "max" : [
                0.6485269069671631,
                -0.5034844279289246,
                -0.028313905000686646
            ],
            "min" : [
                -0.6485269069671631,
                -0.9890846610069275,
                -0.028313905000686646
            ],
            "type" : "VEC3"
        },
        {
            "bufferView" : 9,
            "componentType" : 5126,
            "count" : 4,
            "type" : "VEC3"
        },
        {
            "bufferView" : 10,
            "componentType" : 5126,
            "count" : 4,
            "type" : "VEC2"
        },
        {
            "bufferView" : 11,
            "componentType" : 5123,
            "count" : 6,
            "type" : "SCALAR"
        }
    ],
    "bufferViews" : [
        {
            "buffer" : 0,
            "byteLength" : 23964,
            "byteOffset" : 0
        },
        {
            "buffer" : 0,
            "byteLength" : 23964,
            "byteOffset" : 23964
        },
        {
            "buffer" : 0,
            "byteLength" : 15976,
            "byteOffset" : 47928
        },
        {
            "buffer" : 0,
            "byteLength" : 7044,
            "byteOffset" : 63904
        },
        {
            "buffer" : 0,
            "byteLength" : 624,
            "byteOffset" : 70948
        },
        {
            "buffer" : 0,
            "byteLength" : 624,
            "byteOffset" : 71572
        },
        {
            "buffer" : 0,
            "byteLength" : 416,
            "byteOffset" : 72196
        },
        {
            "buffer" : 0,
            "byteLength" : 156,
            "byteOffset" : 72612
        },
        {
            "buffer" : 0,
            "byteLength" : 48,
            "byteOffset" : 72768
        },
        {
            "buffer" : 0,
            "byteLength" : 48,
            "byteOffset" : 72816
        },
        {
            "buffer" : 0,
            "byteLength" : 32,
            "byteOffset" : 72864
        },
        {
            "buffer" : 0,
            "byteLength" : 12,
            "byteOffset" : 72896
        }
    ],
    "buffers" : [
        {
            "byteLength" : 72908,
            "uri" : "IAB737200ADV_INT.bin"
        }
    ]
}
