{"accessors":[{"bufferView":0,"componentType":5126,"count":161,"min":[0.0],"max":[6.666666666666667],"type":"SCALAR"},{"bufferView":1,"componentType":5126,"count":161,"type":"VEC3"},{"bufferView":2,"componentType":5126,"count":26,"min":[-0.3572525680065155,-0.11823554337024689,0.9879280924797058],"max":[0.3587583899497986,0.7747589349746704,1.5159425735473633],"type":"VEC3","name":"x0_Screens_vertices#0_POSITION"},{"bufferView":2,"byteOffset":12,"componentType":5120,"count":26,"type":"VEC4","name":"x0_Screens_vertices#0_TANGENT"},{"bufferView":2,"byteOffset":16,"componentType":5120,"count":26,"type":"VEC4","name":"x0_Screens_vertices#0_NORMAL"},{"bufferView":2,"byteOffset":20,"componentType":5122,"count":26,"type":"VEC2","name":"x0_Screens_vertices#0_TEXCOORD_0"},{"bufferView":2,"byteOffset":24,"componentType":5122,"count":26,"type":"VEC2","name":"x0_Screens_vertices#0_TEXCOORD_1"},{"bufferView":2,"byteOffset":28,"componentType":5123,"count":26,"type":"VEC4","name":"x0_Screens_vertices#0_COLOR_0"},{"bufferView":3,"componentType":5123,"count":30,"type":"SCALAR","name":"x0_Screens_indices#4"}],"animations":[{"name":"All Animations","channels":[{"sampler":0,"target":{"node":0,"path":"scale"}}],"samplers":[{"input":0,"output":1,"interpolation":"LINEAR"}]}],"asset":{"generator":"Extended Khronos glTF Blender I/O v1.0.0","version":"2.0","extensions":{"ASOBO_asset_optimized":{"BoundingBoxMax":[0.3587583899497986,0.7747589349746704,1.5159425735473633],"BoundingBoxMin":[-0.3572525680065155,-0.11823554337024689,0.9879280924797058],"MajorVersion":4,"MinorVersion":3,"UseCheckerboardMaterialForMissingTextures":true},"ASOBO_normal_map_convention":{"tangent_space_convention":"DirectX"}}},"bufferViews":[{"buffer":0,"byteLength":644},{"buffer":0,"byteLength":1932,"byteOffset":644},{"buffer":0,"byteLength":936,"byteStride":36,"byteOffset":2576,"target":34962,"name":"BufferViewVertexND"},{"buffer":0,"byteLength":60,"byteOffset":3512,"target":34963,"name":"BufferViewIndex"}],"materials":[{"name":"$SCREEN_1","emissiveFactor":[1.0,1.0,1.0]},{"name":"$SCREEN_2","emissiveFactor":[1.0,1.0,1.0]},{"name":"$SCREEN_3","emissiveFactor":[1.0,1.0,1.0]},{"name":"$SCREEN_4","doubleSided":true,"emissiveFactor":[0.799102783203125,0.799102783203125,0.799102783203125],"pbrMetallicRoughness":{"baseColorFactor":[0.799102783203125,0.799102783203125,0.799102783203125,1.0]}},{"name":"$SCREEN_5","doubleSided":true,"emissiveFactor":[0.799102783203125,0.799102783203125,0.799102783203125],"pbrMetallicRoughness":{"baseColorFactor":[0.800000011920929,0.800000011920929,0.800000011920929,1.0]}}],"meshes":[{"primitives":[{"attributes":{"COLOR_0":7,"NORMAL":4,"POSITION":2,"TANGENT":3,"TEXCOORD_0":5,"TEXCOORD_1":6},"indices":8,"material":0,"mode":4,"extras":{"ASOBO_primitive":{"PrimitiveCount":2,"VertexType":"VTX","VertexVersion":2}}},{"attributes":{"COLOR_0":7,"NORMAL":4,"POSITION":2,"TANGENT":3,"TEXCOORD_0":5,"TEXCOORD_1":6},"indices":8,"material":1,"mode":4,"extras":{"ASOBO_primitive":{"PrimitiveCount":2,"StartIndex":6,"VertexType":"VTX","VertexVersion":2}}},{"attributes":{"COLOR_0":7,"NORMAL":4,"POSITION":2,"TANGENT":3,"TEXCOORD_0":5,"TEXCOORD_1":6},"indices":8,"material":2,"mode":4,"extras":{"ASOBO_primitive":{"PrimitiveCount":2,"StartIndex":12,"VertexType":"VTX","VertexVersion":2}}},{"attributes":{"COLOR_0":7,"NORMAL":4,"POSITION":2,"TANGENT":3,"TEXCOORD_0":5,"TEXCOORD_1":6},"indices":8,"material":3,"mode":4,"extras":{"ASOBO_primitive":{"PrimitiveCount":2,"StartIndex":18,"VertexType":"VTX","VertexVersion":2}}},{"attributes":{"COLOR_0":7,"NORMAL":4,"POSITION":2,"TANGENT":3,"TEXCOORD_0":5,"TEXCOORD_1":6},"indices":8,"material":4,"mode":4,"extras":{"ASOBO_primitive":{"PrimitiveCount":2,"StartIndex":24,"VertexType":"VTX","VertexVersion":2}}}],"name":"x0_Screens"}],"nodes":[{"translation":[-0.00030099975992925465,1.1220242977142335,8.842296600341797],"mesh":0,"name":"Screens"}],"scene":0,"scenes":[{"nodes":[0],"name":"Scene"}],"extensionsUsed":["ASOBO_normal_map_convention","ASOBO_asset_optimized"],"buffers":[{"byteLength":3572,"uri":"IAB737200ADV_INT.bin"}]}
