{"accessors":[{"bufferView":0,"componentType":5126,"count":6596,"min":[-14.169719696044922,-1.7387100458145142,-17.72113037109375],"max":[14.169719696044922,3.281440019607544,12.509099960327149],"type":"VEC3","name":"part000_vertices#0_POSITION"},{"bufferView":0,"byteOffset":12,"componentType":5120,"count":6596,"type":"VEC4","name":"part000_vertices#0_TANGENT"},{"bufferView":0,"byteOffset":16,"componentType":5120,"count":6596,"type":"VEC4","name":"part000_vertices#0_NORMAL"},{"bufferView":0,"byteOffset":20,"componentType":5122,"count":6596,"type":"VEC2","name":"part000_vertices#0_TEXCOORD_0"},{"bufferView":0,"byteOffset":24,"componentType":5122,"count":6596,"type":"VEC2","name":"part000_vertices#0_TEXCOORD_1"},{"bufferView":0,"byteOffset":28,"componentType":5123,"count":6596,"type":"VEC4","name":"part000_vertices#0_COLOR_0"},{"bufferView":1,"componentType":5123,"count":14334,"type":"SCALAR","name":"part000_indices#0"},{"bufferView":0,"byteOffset":237456,"componentType":5126,"count":58,"min":[-0.3483400046825409,2.5724899768829347,-17.23702049255371],"max":[0.3483400046825409,8.84751033782959,-9.044130325317383],"type":"VEC3","name":"part004_vertices#0_POSITION"},{"bufferView":0,"byteOffset":237468,"componentType":5120,"count":58,"type":"VEC4","name":"part004_vertices#0_TANGENT"},{"bufferView":0,"byteOffset":237472,"componentType":5120,"count":58,"type":"VEC4","name":"part004_vertices#0_NORMAL"},{"bufferView":0,"byteOffset":237476,"componentType":5122,"count":58,"type":"VEC2","name":"part004_vertices#0_TEXCOORD_0"},{"bufferView":0,"byteOffset":237480,"componentType":5122,"count":58,"type":"VEC2","name":"part004_vertices#0_TEXCOORD_1"},{"bufferView":0,"byteOffset":237484,"componentType":5123,"count":58,"type":"VEC4","name":"part004_vertices#0_COLOR_0"},{"bufferView":1,"byteOffset":28668,"componentType":5123,"count":246,"type":"SCALAR","name":"part004_indices#0"},{"bufferView":0,"byteOffset":239544,"componentType":5126,"count":546,"min":[-1.4363347291946412,-1.1778037548065186,-3.1158785820007326],"max":[1.43661367893219,0.21449534595012666,10.053170204162598],"type":"VEC3","name":"part001_vertices#0_POSITION"},{"bufferView":0,"byteOffset":239556,"componentType":5120,"count":546,"type":"VEC4","name":"part001_vertices#0_TANGENT"},{"bufferView":0,"byteOffset":239560,"componentType":5120,"count":546,"type":"VEC4","name":"part001_vertices#0_NORMAL"},{"bufferView":0,"byteOffset":239564,"componentType":5122,"count":546,"type":"VEC2","name":"part001_vertices#0_TEXCOORD_0"},{"bufferView":0,"byteOffset":239568,"componentType":5122,"count":546,"type":"VEC2","name":"part001_vertices#0_TEXCOORD_1"},{"bufferView":0,"byteOffset":239572,"componentType":5123,"count":546,"type":"VEC4","name":"part001_vertices#0_COLOR_0"},{"bufferView":1,"byteOffset":29160,"componentType":5123,"count":834,"type":"SCALAR","name":"part001_indices#0"},{"bufferView":0,"byteOffset":259200,"componentType":5126,"count":56,"min":[-1.8639800548553467,1.220080018043518,-12.019969940185547],"max":[1.865190029144287,2.1447699069976808,9.197239875793457],"type":"VEC3","name":"part005_vertices#0_POSITION"},{"bufferView":0,"byteOffset":259212,"componentType":5120,"count":56,"type":"VEC4","name":"part005_vertices#0_TANGENT"},{"bufferView":0,"byteOffset":259216,"componentType":5120,"count":56,"type":"VEC4","name":"part005_vertices#0_NORMAL"},{"bufferView":0,"byteOffset":259220,"componentType":5122,"count":56,"type":"VEC2","name":"part005_vertices#0_TEXCOORD_0"},{"bufferView":0,"byteOffset":259224,"componentType":5122,"count":56,"type":"VEC2","name":"part005_vertices#0_TEXCOORD_1"},{"bufferView":0,"byteOffset":259228,"componentType":5123,"count":56,"type":"VEC4","name":"part005_vertices#0_COLOR_0"},{"bufferView":1,"byteOffset":30828,"componentType":5123,"count":171,"type":"SCALAR","name":"part005_indices#0"},{"bufferView":0,"byteOffset":261216,"componentType":5126,"count":58,"min":[-0.3483410179615021,2.572490930557251,-17.23702049255371],"max":[0.3483389914035797,8.847511291503907,-9.044130325317383],"type":"VEC3","name":"part002_vertices#0_POSITION"},{"bufferView":0,"byteOffset":261228,"componentType":5120,"count":58,"type":"VEC4","name":"part002_vertices#0_TANGENT"},{"bufferView":0,"byteOffset":261232,"componentType":5120,"count":58,"type":"VEC4","name":"part002_vertices#0_NORMAL"},{"bufferView":0,"byteOffset":261236,"componentType":5122,"count":58,"type":"VEC2","name":"part002_vertices#0_TEXCOORD_0"},{"bufferView":0,"byteOffset":261240,"componentType":5122,"count":58,"type":"VEC2","name":"part002_vertices#0_TEXCOORD_1"},{"bufferView":0,"byteOffset":261244,"componentType":5123,"count":58,"type":"VEC4","name":"part002_vertices#0_COLOR_0"},{"bufferView":1,"byteOffset":31170,"componentType":5123,"count":246,"type":"SCALAR","name":"part002_indices#0"},{"bufferView":0,"byteOffset":263304,"componentType":5126,"count":106,"min":[-8.725375175476075,-1.1580899953842164,-4.873002052307129],"max":[8.7255277633667,1.2172000408172608,7.832509994506836],"type":"VEC3","name":"part003_vertices#0_POSITION"},{"bufferView":0,"byteOffset":263316,"componentType":5120,"count":106,"type":"VEC4","name":"part003_vertices#0_TANGENT"},{"bufferView":0,"byteOffset":263320,"componentType":5120,"count":106,"type":"VEC4","name":"part003_vertices#0_NORMAL"},{"bufferView":0,"byteOffset":263324,"componentType":5122,"count":106,"type":"VEC2","name":"part003_vertices#0_TEXCOORD_0"},{"bufferView":0,"byteOffset":263328,"componentType":5122,"count":106,"type":"VEC2","name":"part003_vertices#0_TEXCOORD_1"},{"bufferView":0,"byteOffset":263332,"componentType":5123,"count":106,"type":"VEC4","name":"part003_vertices#0_COLOR_0"},{"bufferView":1,"byteOffset":31662,"componentType":5123,"count":288,"type":"SCALAR","name":"part003_indices#0"}],"asset":{"generator":"Extended Khronos glTF Blender I/O v1.0.0","version":"2.0","extensions":{"ASOBO_asset_optimized":{"BoundingBoxMax":[14.169719696044922,8.847511291503907,12.509099960327149],"BoundingBoxMin":[-14.169719696044922,-1.7387100458145142,-17.72113037109375],"MajorVersion":4,"MinorVersion":3,"UseCheckerboardMaterialForMissingTextures":true},"ASOBO_normal_map_convention":{"tangent_space_convention":"DirectX"}}},"bufferViews":[{"buffer":0,"byteLength":267120,"byteStride":36,"target":34962,"name":"BufferViewVertexND"},{"buffer":0,"byteLength":32238,"byteOffset":267120,"target":34963,"name":"BufferViewIndex"}],"materials":[{"name":"Material","doubleSided":true,"pbrMetallicRoughness":{"baseColorFactor":[0.800000011920929,0.800000011920929,0.800000011920929,1.0],"metallicFactor":0.0,"roughnessFactor":0.4000000059604645}},{"name":"material01","pbrMetallicRoughness":{"baseColorFactor":[0.5879999995231628,0.5879999995231628,0.5879999995231628,1.0]}}],"meshes":[{"primitives":[{"attributes":{"COLOR_0":5,"NORMAL":2,"POSITION":0,"TANGENT":1,"TEXCOORD_0":3,"TEXCOORD_1":4},"indices":6,"material":0,"mode":4,"extras":{"ASOBO_primitive":{"PrimitiveCount":4778,"VertexType":"VTX","VertexVersion":2}}}],"name":"part000"},{"primitives":[{"attributes":{"COLOR_0":12,"NORMAL":9,"POSITION":7,"TANGENT":8,"TEXCOORD_0":10,"TEXCOORD_1":11},"indices":13,"material":0,"mode":4,"extras":{"ASOBO_primitive":{"PrimitiveCount":82,"VertexType":"VTX","VertexVersion":2}}}],"name":"part004"},{"primitives":[{"attributes":{"COLOR_0":19,"NORMAL":16,"POSITION":14,"TANGENT":15,"TEXCOORD_0":17,"TEXCOORD_1":18},"indices":20,"material":1,"mode":4,"extras":{"ASOBO_primitive":{"PrimitiveCount":278,"VertexType":"VTX","VertexVersion":2}}}],"name":"part001"},{"primitives":[{"attributes":{"COLOR_0":26,"NORMAL":23,"POSITION":21,"TANGENT":22,"TEXCOORD_0":24,"TEXCOORD_1":25},"indices":27,"material":0,"mode":4,"extras":{"ASOBO_primitive":{"PrimitiveCount":57,"VertexType":"VTX","VertexVersion":2}}}],"name":"part005"},{"primitives":[{"attributes":{"COLOR_0":33,"NORMAL":30,"POSITION":28,"TANGENT":29,"TEXCOORD_0":31,"TEXCOORD_1":32},"indices":34,"material":0,"mode":4,"extras":{"ASOBO_primitive":{"PrimitiveCount":82,"VertexType":"VTX","VertexVersion":2}}}],"name":"part002"},{"primitives":[{"attributes":{"COLOR_0":40,"NORMAL":37,"POSITION":35,"TANGENT":36,"TEXCOORD_0":38,"TEXCOORD_1":39},"indices":41,"material":0,"mode":4,"extras":{"ASOBO_primitive":{"PrimitiveCount":96,"VertexType":"VTX","VertexVersion":2}}}],"name":"part003"}],"nodes":[{"translation":[-2.319000005722046,-0.0820000022649765,1.7059999704360963],"rotation":[0.7071067690849304,0.0,0.0,0.7071067690849304],"name":"attachpt_landing_1"},{"translation":[-8.667767524719239,0.04527311027050018,-4.798532009124756],"rotation":[0.7131628394126892,-0.0010362215107306839,0.0010363514302298429,0.7009968757629395],"name":"attachpt_landing_2"},{"translation":[8.67729377746582,0.039637476205825809,-4.803091526031494],"rotation":[0.7071065306663513,0.0,0.0,0.7071070075035095],"name":"attachpt_landing_3"},{"translation":[2.319338083267212,-0.0820309966802597,1.706063985824585],"rotation":[0.7071067690849304,0.0,0.0,0.7071067690849304],"name":"attachpt_landing_4"},{"translation":[0.10864149779081345,-0.4911835789680481,9.305225372314452],"rotation":[0.13889548182487489,0.05055386945605278,0.338263601064682,-0.9293708205223084],"name":"attachpt_landing_5"},{"mesh":0,"name":"node1"},{"mesh":1,"name":"node19"},{"mesh":2,"name":"node2"},{"mesh":3,"name":"node20"},{"name":"node23"},{"mesh":4,"name":"node7"},{"mesh":5,"name":"node8"},{"name":"node0","children":[0,1,2,3,4,5,6,7,8,9,10,11]},{"translation":[-3.074657917022705,18.22064971923828,14.925649642944336],"rotation":[0.5232754945755005,0.34203392267227175,-0.7269423604011536,0.28416627645492556],"extensions":{"ASOBO_macro_light":{"color":[1,1,1],"cone_angle":360,"day_night_cycle":false,"flash_duration":0,"flash_frequency":0,"flash_phase":0,"has_simmetry":false,"intensity":1000,"rotation_speed":0}},"name":"Light"},{"translation":[12.982874870300292,8.84892749786377,14.844619750976563],"rotation":[0.483536034822464,0.33687159419059756,-0.20870360732078553,0.7804827094078064],"name":"Camera"}],"scene":0,"scenes":[{"nodes":[12,13,14],"name":"Scene"}],"extensionsUsed":["ASOBO_normal_map_convention","ASOBO_macro_light","ASOBO_asset_optimized"],"buffers":[{"byteLength":299358,"uri":"IAB737200ADV.bin"}]}
